<svg xmlns="http://www.w3.org/2000/svg" xmlns:xlink="http://www.w3.org/1999/xlink" width="500" zoomAndPan="magnify" viewBox="0 0 375 374.999991" height="500" preserveAspectRatio="xMidYMid meet" version="1.0"><defs><g/><clipPath id="8476327e11"><path d="M 157.214844 132 L 178 132 L 178 162 L 157.214844 162 Z M 157.214844 132 " clip-rule="nonzero"/></clipPath><clipPath id="86fa286167"><path d="M 157.214844 131 L 179 131 L 179 163 L 157.214844 163 Z M 157.214844 131 " clip-rule="nonzero"/></clipPath><clipPath id="c4e124e56e"><path d="M 197 132 L 217.964844 132 L 217.964844 162 L 197 162 Z M 197 132 " clip-rule="nonzero"/></clipPath><clipPath id="402d4bcba6"><path d="M 196 131 L 217.964844 131 L 217.964844 163 L 196 163 Z M 196 131 " clip-rule="nonzero"/></clipPath><clipPath id="9dbf1bcf91"><path d="M 176 123.375 L 198 123.375 L 198 170.625 L 176 170.625 Z M 176 123.375 " clip-rule="nonzero"/></clipPath></defs><rect x="-37.5" width="450" fill="#ffffff" y="-37.499999" height="449.999989" fill-opacity="1"/><rect x="-37.5" width="450" fill="#171810" y="-37.499999" height="449.999989" fill-opacity="1"/><g clip-path="url(#8476327e11)"><path fill="#03fa6e" d="M 176.320312 161.707031 C 175.988281 161.707031 175.65625 161.59375 175.394531 161.386719 L 158.457031 148.058594 C 158.09375 147.773438 157.882812 147.34375 157.882812 146.882812 C 157.882812 146.417969 158.09375 145.988281 158.457031 145.703125 L 175.394531 132.378906 C 175.65625 132.167969 175.988281 132.058594 176.320312 132.058594 C 176.785156 132.058594 177.214844 132.261719 177.5 132.628906 C 177.746094 132.941406 177.859375 133.335938 177.8125 133.734375 C 177.765625 134.132812 177.5625 134.488281 177.25 134.734375 L 161.8125 146.882812 L 177.25 159.027344 C 177.5625 159.277344 177.765625 159.632812 177.8125 160.027344 C 177.859375 160.425781 177.746094 160.816406 177.5 161.136719 C 177.214844 161.496094 176.785156 161.707031 176.320312 161.707031 " fill-opacity="1" fill-rule="nonzero"/></g><g clip-path="url(#86fa286167)"><path fill="#2a446b" d="M 176.320312 131.417969 C 175.84375 131.417969 175.375 131.578125 175 131.875 L 158.0625 145.199219 C 157.542969 145.613281 157.246094 146.222656 157.246094 146.882812 C 157.246094 147.542969 157.542969 148.15625 158.0625 148.5625 L 175 161.886719 C 175.375 162.183594 175.84375 162.347656 176.320312 162.347656 C 176.984375 162.347656 177.597656 162.046875 178.003906 161.527344 C 178.359375 161.082031 178.511719 160.523438 178.445312 159.953125 C 178.378906 159.386719 178.09375 158.878906 177.644531 158.527344 L 162.84375 146.882812 L 177.644531 135.238281 C 178.09375 134.882812 178.378906 134.375 178.445312 133.808594 C 178.511719 133.242188 178.359375 132.683594 178.003906 132.234375 C 177.597656 131.714844 176.980469 131.417969 176.320312 131.417969 Z M 176.320312 132.695312 C 176.578125 132.695312 176.828125 132.808594 177 133.023438 C 177.292969 133.398438 177.226562 133.941406 176.855469 134.234375 L 160.777344 146.882812 L 176.855469 159.53125 C 177.226562 159.824219 177.292969 160.367188 177 160.738281 C 176.828125 160.957031 176.578125 161.070312 176.320312 161.070312 C 176.132812 161.070312 175.949219 161.007812 175.789062 160.882812 L 158.851562 147.558594 C 158.644531 147.394531 158.523438 147.144531 158.523438 146.882812 C 158.523438 146.617188 158.644531 146.367188 158.851562 146.203125 L 175.789062 132.878906 C 175.945312 132.753906 176.132812 132.695312 176.320312 132.695312 " fill-opacity="1" fill-rule="nonzero"/></g><g clip-path="url(#c4e124e56e)"><path fill="#03fa6e" d="M 198.667969 161.707031 C 198.207031 161.707031 197.777344 161.496094 197.488281 161.136719 C 196.976562 160.484375 197.089844 159.539062 197.742188 159.027344 L 213.179688 146.882812 L 197.742188 134.734375 C 197.089844 134.222656 196.976562 133.277344 197.488281 132.628906 C 197.777344 132.261719 198.207031 132.058594 198.667969 132.058594 C 199.003906 132.058594 199.332031 132.167969 199.597656 132.378906 L 216.535156 145.703125 C 216.898438 145.988281 217.105469 146.417969 217.105469 146.882812 C 217.105469 147.34375 216.898438 147.773438 216.53125 148.058594 L 199.597656 161.386719 C 199.332031 161.59375 199.003906 161.707031 198.667969 161.707031 " fill-opacity="1" fill-rule="nonzero"/></g><g clip-path="url(#402d4bcba6)"><path fill="#2a446b" d="M 198.667969 131.417969 C 198.007812 131.417969 197.394531 131.714844 196.988281 132.234375 C 196.257812 133.160156 196.417969 134.507812 197.34375 135.238281 L 212.144531 146.882812 L 197.34375 158.527344 C 196.417969 159.253906 196.257812 160.601562 196.988281 161.527344 C 197.394531 162.046875 198.007812 162.347656 198.667969 162.347656 C 199.148438 162.347656 199.613281 162.183594 199.988281 161.886719 L 216.929688 148.5625 C 217.445312 148.15625 217.742188 147.542969 217.742188 146.882812 C 217.742188 146.222656 217.445312 145.613281 216.929688 145.199219 L 199.992188 131.875 C 199.617188 131.578125 199.148438 131.417969 198.667969 131.417969 Z M 198.667969 132.695312 C 198.855469 132.695312 199.042969 132.753906 199.199219 132.878906 L 216.140625 146.203125 C 216.347656 146.367188 216.464844 146.617188 216.464844 146.882812 C 216.464844 147.144531 216.347656 147.394531 216.140625 147.558594 L 199.199219 160.882812 C 199.042969 161.007812 198.855469 161.070312 198.667969 161.070312 C 198.414062 161.070312 198.160156 160.957031 197.992188 160.738281 C 197.699219 160.367188 197.761719 159.824219 198.136719 159.53125 L 214.210938 146.882812 L 198.136719 134.234375 C 197.761719 133.941406 197.699219 133.398438 197.992188 133.023438 C 198.160156 132.808594 198.414062 132.695312 198.667969 132.695312 " fill-opacity="1" fill-rule="nonzero"/></g><path fill="#03fa6e" d="M 179.078125 169.75 C 178.890625 169.75 178.710938 169.710938 178.535156 169.644531 C 178.164062 169.5 177.867188 169.21875 177.707031 168.855469 C 177.542969 168.484375 177.535156 168.078125 177.679688 167.707031 L 194.21875 124.972656 C 194.441406 124.402344 195.003906 124.015625 195.617188 124.015625 C 195.804688 124.015625 195.988281 124.050781 196.164062 124.117188 C 196.929688 124.417969 197.316406 125.289062 197.019531 126.058594 L 180.476562 168.789062 C 180.257812 169.363281 179.691406 169.75 179.078125 169.75 " fill-opacity="1" fill-rule="nonzero"/><g clip-path="url(#9dbf1bcf91)"><path fill="#2a446b" d="M 195.617188 123.375 C 194.742188 123.375 193.9375 123.929688 193.625 124.742188 L 177.082031 167.472656 C 176.878906 168.007812 176.890625 168.589844 177.121094 169.113281 C 177.351562 169.632812 177.773438 170.035156 178.304688 170.242188 C 178.554688 170.339844 178.8125 170.386719 179.078125 170.386719 C 179.953125 170.386719 180.757812 169.835938 181.074219 169.019531 L 197.613281 126.289062 C 198.039062 125.1875 197.492188 123.945312 196.390625 123.523438 C 196.144531 123.425781 195.882812 123.375 195.617188 123.375 Z M 195.617188 124.652344 C 195.722656 124.652344 195.828125 124.675781 195.929688 124.714844 C 196.375 124.882812 196.59375 125.382812 196.421875 125.828125 L 179.878906 168.558594 C 179.75 168.898438 179.421875 169.109375 179.078125 169.109375 C 178.972656 169.109375 178.867188 169.089844 178.765625 169.050781 C 178.320312 168.878906 178.101562 168.378906 178.277344 167.9375 L 194.816406 125.207031 C 194.949219 124.863281 195.273438 124.652344 195.617188 124.652344 " fill-opacity="1" fill-rule="nonzero"/></g><g fill="#ffffff" fill-opacity="1"><g transform="translate(160.366982, 216.116295)"><g><path d="M 24.851562 0 L 24.851562 -6.089844 L 8.738281 -6.089844 L 8.738281 -14.289062 L 23.320312 -14.289062 L 23.320312 -20.046875 L 8.738281 -20.046875 L 8.738281 -27.503906 L 24.769531 -27.503906 L 24.769531 -33.59375 L 2.277344 -33.59375 L 2.277344 0 Z M 24.851562 0 "/></g></g></g><g fill="#ffffff" fill-opacity="1"><g transform="translate(185.297849, 216.116295)"><g><path d="M 21.953125 -13.835938 C 26.757812 -15.328125 28.828125 -19.054688 28.828125 -23.609375 L 28.828125 -23.652344 C 28.828125 -29.078125 25.722656 -33.59375 16.941406 -33.59375 L 2.277344 -33.59375 L 2.277344 0 L 8.738281 0 L 8.738281 -13.171875 L 15.535156 -13.171875 L 23.402344 0 L 30.320312 0 Z M 16.609375 -27.546875 C 20.007812 -27.546875 22.203125 -26.386719 22.203125 -23.03125 L 22.203125 -22.988281 C 22.203125 -19.46875 20.007812 -18.226562 16.609375 -18.226562 L 8.738281 -18.226562 L 8.738281 -27.546875 Z M 16.609375 -27.546875 "/></g></g></g><g fill="#03fa6e" fill-opacity="1"><g transform="translate(73.96426, 245.299906)"><g><path d="M 8.984375 0.25 C 11.101562 0.25 12.714844 -0.347656 14.101562 -1.210938 L 12.925781 -3.695312 C 11.601562 -2.886719 10.292969 -2.578125 8.984375 -2.578125 C 6.136719 -2.578125 3.867188 -4.636719 3.867188 -7.773438 L 3.867188 -7.808594 C 3.867188 -11.082031 6.15625 -13.042969 8.984375 -13.042969 C 10.292969 -13.042969 11.601562 -12.714844 12.925781 -11.90625 L 14.101562 -14.390625 C 12.675781 -15.292969 11.023438 -15.871094 8.984375 -15.871094 C 4.097656 -15.871094 0.789062 -12.601562 0.789062 -7.808594 L 0.789062 -7.773438 C 0.789062 -2.980469 4.117188 0.25 8.984375 0.25 Z M 8.984375 0.25 "/></g></g></g><g fill="#03fa6e" fill-opacity="1"><g transform="translate(88.117572, 245.299906)"><g><path d="M 6.90625 0.308594 C 10.523438 0.308594 13.042969 -2.191406 13.042969 -5.597656 L 13.042969 -5.617188 C 13.042969 -9.003906 10.523438 -11.484375 6.90625 -11.484375 C 3.289062 -11.484375 0.789062 -9.003906 0.789062 -5.617188 L 0.789062 -5.597656 C 0.789062 -2.191406 3.308594 0.308594 6.90625 0.308594 Z M 6.90625 -2.425781 C 5.078125 -2.425781 3.847656 -3.808594 3.847656 -5.597656 L 3.847656 -5.636719 C 3.847656 -7.40625 5.058594 -8.753906 6.90625 -8.753906 C 8.773438 -8.753906 9.964844 -7.40625 9.964844 -5.636719 L 9.964844 -5.597656 C 9.964844 -3.808594 8.753906 -2.425781 6.90625 -2.425781 Z M 6.90625 -2.425781 "/></g></g></g><g fill="#03fa6e" fill-opacity="1"><g transform="translate(101.193973, 245.299906)"><g><path d="M 6.90625 0.308594 C 8.964844 0.308594 10.351562 0 11.925781 -0.769531 L 11.925781 -15.601562 L 8.886719 -15.601562 L 8.886719 -11.195312 C 8.214844 -11.351562 7.503906 -11.484375 6.789062 -11.484375 C 3.019531 -11.484375 0.789062 -9.003906 0.789062 -5.617188 L 0.789062 -5.578125 C 0.789062 -2.191406 3.136719 0.308594 6.90625 0.308594 Z M 6.90625 -2.425781 C 4.90625 -2.425781 3.847656 -3.808594 3.847656 -5.578125 L 3.847656 -5.617188 C 3.847656 -7.386719 4.90625 -8.753906 6.90625 -8.753906 C 7.578125 -8.753906 8.292969 -8.597656 8.886719 -8.464844 L 8.886719 -2.675781 C 8.292969 -2.519531 7.636719 -2.425781 6.90625 -2.425781 Z M 6.90625 -2.425781 "/></g></g></g><g fill="#03fa6e" fill-opacity="1"><g transform="translate(113.443467, 245.299906)"><g><path d="M 2.558594 -12.484375 C 3.40625 -12.484375 4.078125 -12.910156 4.078125 -13.832031 C 4.078125 -14.660156 3.460938 -15.160156 2.558594 -15.160156 C 1.671875 -15.160156 1.039062 -14.660156 1.039062 -13.832031 C 1.039062 -12.910156 1.730469 -12.484375 2.558594 -12.484375 Z M 4.097656 0 L 4.097656 -11.042969 L 1.039062 -11.042969 L 1.039062 0 Z M 4.097656 0 "/></g></g></g><g fill="#03fa6e" fill-opacity="1"><g transform="translate(117.846893, 245.299906)"><g><path d="M 4.097656 0 L 4.097656 -8.5625 C 4.808594 -8.675781 5.5 -8.753906 6.039062 -8.753906 C 7.464844 -8.753906 8.234375 -8.234375 8.234375 -6.847656 L 8.234375 0 L 11.273438 0 L 11.273438 -7.214844 C 11.273438 -10.523438 8.90625 -11.484375 6.175781 -11.484375 C 5.058594 -11.484375 2.886719 -11.234375 1.039062 -10.90625 L 1.039062 0 Z M 4.097656 0 "/></g></g></g><g fill="#03fa6e" fill-opacity="1"><g transform="translate(129.442541, 245.299906)"><g><path d="M 7.136719 -11.484375 C 3.230469 -11.484375 0.789062 -9.582031 0.789062 -6.078125 L 0.789062 -6.039062 C 0.789062 -2.519531 3.097656 -0.5 7.039062 -0.5 C 7.695312 -0.5 8.328125 -0.578125 8.925781 -0.691406 L 8.925781 -0.230469 C 8.925781 1.152344 8.347656 1.75 6.523438 1.75 C 5.5 1.75 3.75 1.480469 2.65625 1.019531 L 3.328125 3.847656 C 4.019531 4.15625 5.558594 4.445312 6.925781 4.445312 C 9.617188 4.445312 11.984375 3.386719 11.984375 0.078125 L 11.984375 -10.386719 C 10.832031 -10.925781 9.023438 -11.484375 7.136719 -11.484375 Z M 3.847656 -6.019531 C 3.847656 -7.925781 5.058594 -8.753906 7.136719 -8.753906 C 7.734375 -8.753906 8.328125 -8.675781 8.925781 -8.484375 L 8.925781 -3.445312 C 8.273438 -3.289062 7.675781 -3.230469 7.15625 -3.230469 C 5.039062 -3.230469 3.847656 -4.097656 3.847656 -6.003906 Z M 3.847656 -6.019531 "/></g></g></g><g fill="#03fa6e" fill-opacity="1"><g transform="translate(141.730491, 245.299906)"><g/></g></g><g fill="#03fa6e" fill-opacity="1"><g transform="translate(144.24933, 245.299906)"><g><path d="M 6.90625 0.308594 C 8.964844 0.308594 10.351562 0 11.925781 -0.769531 L 11.925781 -15.601562 L 8.886719 -15.601562 L 8.886719 -11.195312 C 8.214844 -11.351562 7.503906 -11.484375 6.789062 -11.484375 C 3.019531 -11.484375 0.789062 -9.003906 0.789062 -5.617188 L 0.789062 -5.578125 C 0.789062 -2.191406 3.136719 0.308594 6.90625 0.308594 Z M 6.90625 -2.425781 C 4.90625 -2.425781 3.847656 -3.808594 3.847656 -5.578125 L 3.847656 -5.617188 C 3.847656 -7.386719 4.90625 -8.753906 6.90625 -8.753906 C 7.578125 -8.753906 8.292969 -8.597656 8.886719 -8.464844 L 8.886719 -2.675781 C 8.292969 -2.519531 7.636719 -2.425781 6.90625 -2.425781 Z M 6.90625 -2.425781 "/></g></g></g><g fill="#03fa6e" fill-opacity="1"><g transform="translate(156.498827, 245.299906)"><g><path d="M 4.097656 0 L 4.097656 -8.078125 C 4.347656 -8.136719 5.597656 -8.234375 6.058594 -8.234375 L 7.714844 -8.234375 L 7.714844 -11.042969 L 5.558594 -11.042969 C 4.558594 -11.042969 2.65625 -10.964844 1.039062 -10.617188 L 1.039062 0 Z M 4.097656 0 "/></g></g></g><g fill="#03fa6e" fill-opacity="1"><g transform="translate(164.209907, 245.299906)"><g><path d="M 12.214844 -5.15625 C 12.214844 -9.097656 10.0625 -11.484375 6.523438 -11.484375 C 3.019531 -11.484375 0.769531 -9.0625 0.769531 -5.617188 L 0.769531 -5.597656 C 0.769531 -2.097656 3.175781 0.289062 6.886719 0.289062 C 9.042969 0.289062 10.5625 -0.382812 11.675781 -1.078125 L 10.351562 -3.445312 C 9.542969 -2.867188 8.367188 -2.386719 7.023438 -2.386719 C 5.347656 -2.386719 4.25 -3.460938 3.945312 -4.886719 L 12.214844 -4.886719 Z M 6.503906 -9.003906 C 7.984375 -9.003906 8.867188 -8.042969 9.097656 -6.773438 L 3.964844 -6.773438 C 4.25 -8.042969 5.175781 -9.003906 6.503906 -9.003906 Z M 6.503906 -9.003906 "/></g></g></g><g fill="#03fa6e" fill-opacity="1"><g transform="translate(176.478631, 245.299906)"><g><path d="M 6.195312 -11.425781 C 4.789062 -11.425781 3.15625 -11.121094 2.328125 -10.792969 L 1.65625 -8.078125 C 2.867188 -8.5625 4.445312 -8.847656 5.539062 -8.847656 C 7.234375 -8.847656 8.195312 -8.347656 8.195312 -6.964844 L 8.195312 -6.558594 C 7.289062 -6.675781 6.503906 -6.714844 5.695312 -6.714844 C 2.675781 -6.714844 0.769531 -5.636719 0.769531 -3.289062 L 0.769531 -3.25 C 0.769531 -0.652344 2.867188 0.308594 6.253906 0.308594 C 7.753906 0.308594 9.734375 0.0976562 11.253906 -0.230469 L 11.253906 -7.058594 C 11.253906 -10.332031 9.253906 -11.425781 6.195312 -11.425781 Z M 3.90625 -3.445312 C 3.90625 -4.425781 4.828125 -4.769531 6.367188 -4.769531 C 6.847656 -4.769531 7.578125 -4.714844 8.195312 -4.617188 L 8.195312 -2.230469 C 7.558594 -2.136719 6.886719 -2.078125 6.367188 -2.078125 C 4.808594 -2.078125 3.90625 -2.460938 3.90625 -3.40625 Z M 3.90625 -3.445312 "/></g></g></g><g fill="#03fa6e" fill-opacity="1"><g transform="translate(187.99736, 245.299906)"><g><path d="M 4.097656 0 L 4.097656 -8.578125 C 4.714844 -8.714844 5.269531 -8.773438 5.753906 -8.773438 C 6.945312 -8.773438 7.714844 -8.273438 7.714844 -6.867188 L 7.714844 0 L 10.753906 0 L 10.753906 -6.867188 C 10.753906 -8.023438 11.101562 -8.773438 12.601562 -8.773438 C 14.101562 -8.773438 14.449219 -8.023438 14.449219 -6.867188 L 14.449219 0 L 17.507812 0 L 17.507812 -7.214844 C 17.507812 -10.386719 15.753906 -11.503906 12.890625 -11.503906 C 11.292969 -11.503906 10.003906 -11.0625 9.214844 -10.023438 C 8.523438 -11.101562 7.289062 -11.503906 5.886719 -11.503906 C 4.90625 -11.503906 2.925781 -11.273438 1.039062 -10.925781 L 1.039062 0 Z M 4.097656 0 "/></g></g></g><g fill="#03fa6e" fill-opacity="1"><g transform="translate(205.80448, 245.299906)"><g><path d="M 5.636719 0.25 C 8.925781 0.25 10.5625 -0.941406 10.5625 -3.328125 C 10.5625 -5.078125 9.40625 -6.15625 6.925781 -6.847656 L 6.136719 -7.058594 C 4.808594 -7.445312 4.269531 -7.714844 4.269531 -8.273438 C 4.269531 -8.886719 4.925781 -9.097656 6.039062 -9.097656 C 6.984375 -9.097656 8.3125 -8.886719 9.292969 -8.367188 L 10.175781 -10.503906 C 9.042969 -11.101562 7.347656 -11.464844 5.675781 -11.464844 C 2.808594 -11.464844 1.191406 -10.214844 1.191406 -8.175781 C 1.191406 -6.347656 2.230469 -5.269531 4.539062 -4.65625 L 5.578125 -4.386719 C 7.195312 -3.945312 7.558594 -3.695312 7.558594 -3.097656 C 7.558594 -2.289062 6.675781 -2.117188 5.367188 -2.117188 C 4.25 -2.117188 2.90625 -2.367188 1.617188 -2.925781 L 0.789062 -0.710938 C 2.367188 -0.0585938 3.90625 0.25 5.636719 0.25 Z M 5.636719 0.25 "/></g></g></g><g fill="#03fa6e" fill-opacity="1"><g transform="translate(216.400141, 245.299906)"><g><path d="M 2.367188 3.195312 L 5.15625 -3.019531 L 1.941406 -3.019531 L -0.132812 3.195312 Z M 2.367188 3.195312 "/></g></g></g><g fill="#03fa6e" fill-opacity="1"><g transform="translate(221.350973, 245.299906)"><g/></g></g><g fill="#03fa6e" fill-opacity="1"><g transform="translate(223.86981, 245.299906)"><g/></g></g><g fill="#03fa6e" fill-opacity="1"><g transform="translate(226.390035, 245.299906)"><g><path d="M 7.386719 0 C 10.636719 0 13.003906 -1.171875 13.003906 -4.425781 L 13.003906 -4.5 C 13.003906 -6.539062 11.773438 -7.90625 9.636719 -8.234375 C 11.3125 -8.65625 12.351562 -9.867188 12.351562 -11.792969 L 12.351562 -11.871094 C 12.351562 -14.3125 11.003906 -15.601562 7.425781 -15.601562 L 1.058594 -15.601562 L 1.058594 0 Z M 4.039062 -12.8125 L 7.078125 -12.8125 C 8.542969 -12.8125 9.347656 -12.332031 9.347656 -11.003906 L 9.347656 -10.925781 C 9.347656 -9.714844 8.464844 -9.136719 6.945312 -9.136719 L 4.039062 -9.136719 Z M 4.039062 -6.847656 L 7.484375 -6.847656 C 9.042969 -6.847656 9.964844 -6.175781 9.964844 -4.964844 L 9.964844 -4.867188 C 9.964844 -3.558594 9.136719 -2.808594 7.578125 -2.808594 L 4.039062 -2.808594 Z M 4.039062 -6.847656 "/></g></g></g><g fill="#03fa6e" fill-opacity="1"><g transform="translate(239.351056, 245.299906)"><g><path d="M 6.15625 0.308594 C 7.273438 0.308594 9.445312 0.0585938 11.273438 -0.269531 L 11.273438 -11.042969 L 8.234375 -11.042969 L 8.234375 -2.5 C 7.523438 -2.367188 6.828125 -2.308594 6.289062 -2.308594 C 4.847656 -2.308594 4.097656 -2.808594 4.097656 -4.214844 L 4.097656 -11.042969 L 1.039062 -11.042969 L 1.039062 -3.964844 C 1.039062 -0.652344 3.425781 0.308594 6.15625 0.308594 Z M 6.15625 0.308594 "/></g></g></g><g fill="#03fa6e" fill-opacity="1"><g transform="translate(250.946706, 245.299906)"><g><path d="M 2.558594 -12.484375 C 3.40625 -12.484375 4.078125 -12.910156 4.078125 -13.832031 C 4.078125 -14.660156 3.460938 -15.160156 2.558594 -15.160156 C 1.671875 -15.160156 1.039062 -14.660156 1.039062 -13.832031 C 1.039062 -12.910156 1.730469 -12.484375 2.558594 -12.484375 Z M 4.097656 0 L 4.097656 -11.042969 L 1.039062 -11.042969 L 1.039062 0 Z M 4.097656 0 "/></g></g></g><g fill="#03fa6e" fill-opacity="1"><g transform="translate(255.350132, 245.299906)"><g><path d="M 4.097656 0 L 4.097656 -15.601562 L 1.039062 -15.601562 L 1.039062 0 Z M 4.097656 0 "/></g></g></g><g fill="#03fa6e" fill-opacity="1"><g transform="translate(259.753558, 245.299906)"><g><path d="M 6.90625 0.308594 C 8.964844 0.308594 10.351562 0 11.925781 -0.769531 L 11.925781 -15.601562 L 8.886719 -15.601562 L 8.886719 -11.195312 C 8.214844 -11.351562 7.503906 -11.484375 6.789062 -11.484375 C 3.019531 -11.484375 0.789062 -9.003906 0.789062 -5.617188 L 0.789062 -5.578125 C 0.789062 -2.191406 3.136719 0.308594 6.90625 0.308594 Z M 6.90625 -2.425781 C 4.90625 -2.425781 3.847656 -3.808594 3.847656 -5.578125 L 3.847656 -5.617188 C 3.847656 -7.386719 4.90625 -8.753906 6.90625 -8.753906 C 7.578125 -8.753906 8.292969 -8.597656 8.886719 -8.464844 L 8.886719 -2.675781 C 8.292969 -2.519531 7.636719 -2.425781 6.90625 -2.425781 Z M 6.90625 -2.425781 "/></g></g></g><g fill="#03fa6e" fill-opacity="1"><g transform="translate(272.003052, 245.299906)"><g><path d="M 2.558594 -12.484375 C 3.40625 -12.484375 4.078125 -12.910156 4.078125 -13.832031 C 4.078125 -14.660156 3.460938 -15.160156 2.558594 -15.160156 C 1.671875 -15.160156 1.039062 -14.660156 1.039062 -13.832031 C 1.039062 -12.910156 1.730469 -12.484375 2.558594 -12.484375 Z M 4.097656 0 L 4.097656 -11.042969 L 1.039062 -11.042969 L 1.039062 0 Z M 4.097656 0 "/></g></g></g><g fill="#03fa6e" fill-opacity="1"><g transform="translate(276.406481, 245.299906)"><g><path d="M 4.097656 0 L 4.097656 -8.5625 C 4.808594 -8.675781 5.5 -8.753906 6.039062 -8.753906 C 7.464844 -8.753906 8.234375 -8.234375 8.234375 -6.847656 L 8.234375 0 L 11.273438 0 L 11.273438 -7.214844 C 11.273438 -10.523438 8.90625 -11.484375 6.175781 -11.484375 C 5.058594 -11.484375 2.886719 -11.234375 1.039062 -10.90625 L 1.039062 0 Z M 4.097656 0 "/></g></g></g><g fill="#03fa6e" fill-opacity="1"><g transform="translate(288.002132, 245.299906)"><g><path d="M 7.136719 -11.484375 C 3.230469 -11.484375 0.789062 -9.582031 0.789062 -6.078125 L 0.789062 -6.039062 C 0.789062 -2.519531 3.097656 -0.5 7.039062 -0.5 C 7.695312 -0.5 8.328125 -0.578125 8.925781 -0.691406 L 8.925781 -0.230469 C 8.925781 1.152344 8.347656 1.75 6.523438 1.75 C 5.5 1.75 3.75 1.480469 2.65625 1.019531 L 3.328125 3.847656 C 4.019531 4.15625 5.558594 4.445312 6.925781 4.445312 C 9.617188 4.445312 11.984375 3.386719 11.984375 0.078125 L 11.984375 -10.386719 C 10.832031 -10.925781 9.023438 -11.484375 7.136719 -11.484375 Z M 3.847656 -6.019531 C 3.847656 -7.925781 5.058594 -8.753906 7.136719 -8.753906 C 7.734375 -8.753906 8.328125 -8.675781 8.925781 -8.484375 L 8.925781 -3.445312 C 8.273438 -3.289062 7.675781 -3.230469 7.15625 -3.230469 C 5.039062 -3.230469 3.847656 -4.097656 3.847656 -6.003906 Z M 3.847656 -6.019531 "/></g></g></g><g fill="#03fa6e" fill-opacity="1"><g transform="translate(145.612693, 271.549905)"><g><path d="M 10.195312 -6.425781 C 12.425781 -7.117188 13.390625 -8.847656 13.390625 -10.964844 L 13.390625 -10.984375 C 13.390625 -13.503906 11.945312 -15.601562 7.867188 -15.601562 L 1.058594 -15.601562 L 1.058594 0 L 4.058594 0 L 4.058594 -6.117188 L 7.214844 -6.117188 L 10.871094 0 L 14.082031 0 Z M 7.714844 -12.792969 C 9.292969 -12.792969 10.3125 -12.253906 10.3125 -10.695312 L 10.3125 -10.675781 C 10.3125 -9.042969 9.292969 -8.464844 7.714844 -8.464844 L 4.058594 -8.464844 L 4.058594 -12.792969 Z M 7.714844 -12.792969 "/></g></g></g><g fill="#03fa6e" fill-opacity="1"><g transform="translate(159.227549, 271.549905)"><g><path d="M 12.214844 -5.15625 C 12.214844 -9.097656 10.0625 -11.484375 6.523438 -11.484375 C 3.019531 -11.484375 0.769531 -9.0625 0.769531 -5.617188 L 0.769531 -5.597656 C 0.769531 -2.097656 3.175781 0.289062 6.886719 0.289062 C 9.042969 0.289062 10.5625 -0.382812 11.675781 -1.078125 L 10.351562 -3.445312 C 9.542969 -2.867188 8.367188 -2.386719 7.023438 -2.386719 C 5.347656 -2.386719 4.25 -3.460938 3.945312 -4.886719 L 12.214844 -4.886719 Z M 6.503906 -9.003906 C 7.984375 -9.003906 8.867188 -8.042969 9.097656 -6.773438 L 3.964844 -6.773438 C 4.25 -8.042969 5.175781 -9.003906 6.503906 -9.003906 Z M 6.503906 -9.003906 "/></g></g></g><g fill="#03fa6e" fill-opacity="1"><g transform="translate(171.496271, 271.549905)"><g><path d="M 6.195312 -11.425781 C 4.789062 -11.425781 3.15625 -11.121094 2.328125 -10.792969 L 1.65625 -8.078125 C 2.867188 -8.5625 4.445312 -8.847656 5.539062 -8.847656 C 7.234375 -8.847656 8.195312 -8.347656 8.195312 -6.964844 L 8.195312 -6.558594 C 7.289062 -6.675781 6.503906 -6.714844 5.695312 -6.714844 C 2.675781 -6.714844 0.769531 -5.636719 0.769531 -3.289062 L 0.769531 -3.25 C 0.769531 -0.652344 2.867188 0.308594 6.253906 0.308594 C 7.753906 0.308594 9.734375 0.0976562 11.253906 -0.230469 L 11.253906 -7.058594 C 11.253906 -10.332031 9.253906 -11.425781 6.195312 -11.425781 Z M 3.90625 -3.445312 C 3.90625 -4.425781 4.828125 -4.769531 6.367188 -4.769531 C 6.847656 -4.769531 7.578125 -4.714844 8.195312 -4.617188 L 8.195312 -2.230469 C 7.558594 -2.136719 6.886719 -2.078125 6.367188 -2.078125 C 4.808594 -2.078125 3.90625 -2.460938 3.90625 -3.40625 Z M 3.90625 -3.445312 "/></g></g></g><g fill="#03fa6e" fill-opacity="1"><g transform="translate(183.015004, 271.549905)"><g><path d="M 4.097656 0 L 4.097656 -15.601562 L 1.039062 -15.601562 L 1.039062 0 Z M 4.097656 0 "/></g></g></g><g fill="#03fa6e" fill-opacity="1"><g transform="translate(187.418429, 271.549905)"><g><path d="M 2.558594 -12.484375 C 3.40625 -12.484375 4.078125 -12.910156 4.078125 -13.832031 C 4.078125 -14.660156 3.460938 -15.160156 2.558594 -15.160156 C 1.671875 -15.160156 1.039062 -14.660156 1.039062 -13.832031 C 1.039062 -12.910156 1.730469 -12.484375 2.558594 -12.484375 Z M 4.097656 0 L 4.097656 -11.042969 L 1.039062 -11.042969 L 1.039062 0 Z M 4.097656 0 "/></g></g></g><g fill="#03fa6e" fill-opacity="1"><g transform="translate(191.821855, 271.549905)"><g><path d="M 9.484375 0 L 9.484375 -2.828125 L 7.347656 -2.828125 C 6.039062 -2.828125 5.445312 -3.328125 5.445312 -4.558594 L 5.445312 -8.234375 L 9.464844 -8.234375 L 9.464844 -11.042969 L 5.445312 -11.042969 L 5.445312 -14.429688 L 2.386719 -14.429688 L 2.386719 -11.042969 L 0.441406 -11.042969 L 0.441406 -8.234375 L 2.386719 -8.234375 L 2.386719 -3.597656 C 2.386719 -1.191406 3.347656 0 5.984375 0 Z M 9.484375 0 "/></g></g></g><g fill="#03fa6e" fill-opacity="1"><g transform="translate(201.379073, 271.549905)"><g><path d="M 2.558594 -12.484375 C 3.40625 -12.484375 4.078125 -12.910156 4.078125 -13.832031 C 4.078125 -14.660156 3.460938 -15.160156 2.558594 -15.160156 C 1.671875 -15.160156 1.039062 -14.660156 1.039062 -13.832031 C 1.039062 -12.910156 1.730469 -12.484375 2.558594 -12.484375 Z M 4.097656 0 L 4.097656 -11.042969 L 1.039062 -11.042969 L 1.039062 0 Z M 4.097656 0 "/></g></g></g><g fill="#03fa6e" fill-opacity="1"><g transform="translate(205.782502, 271.549905)"><g><path d="M 12.214844 -5.15625 C 12.214844 -9.097656 10.0625 -11.484375 6.523438 -11.484375 C 3.019531 -11.484375 0.769531 -9.0625 0.769531 -5.617188 L 0.769531 -5.597656 C 0.769531 -2.097656 3.175781 0.289062 6.886719 0.289062 C 9.042969 0.289062 10.5625 -0.382812 11.675781 -1.078125 L 10.351562 -3.445312 C 9.542969 -2.867188 8.367188 -2.386719 7.023438 -2.386719 C 5.347656 -2.386719 4.25 -3.460938 3.945312 -4.886719 L 12.214844 -4.886719 Z M 6.503906 -9.003906 C 7.984375 -9.003906 8.867188 -8.042969 9.097656 -6.773438 L 3.964844 -6.773438 C 4.25 -8.042969 5.175781 -9.003906 6.503906 -9.003906 Z M 6.503906 -9.003906 "/></g></g></g><g fill="#03fa6e" fill-opacity="1"><g transform="translate(218.051226, 271.549905)"><g><path d="M 5.636719 0.25 C 8.925781 0.25 10.5625 -0.941406 10.5625 -3.328125 C 10.5625 -5.078125 9.40625 -6.15625 6.925781 -6.847656 L 6.136719 -7.058594 C 4.808594 -7.445312 4.269531 -7.714844 4.269531 -8.273438 C 4.269531 -8.886719 4.925781 -9.097656 6.039062 -9.097656 C 6.984375 -9.097656 8.3125 -8.886719 9.292969 -8.367188 L 10.175781 -10.503906 C 9.042969 -11.101562 7.347656 -11.464844 5.675781 -11.464844 C 2.808594 -11.464844 1.191406 -10.214844 1.191406 -8.175781 C 1.191406 -6.347656 2.230469 -5.269531 4.539062 -4.65625 L 5.578125 -4.386719 C 7.195312 -3.945312 7.558594 -3.695312 7.558594 -3.097656 C 7.558594 -2.289062 6.675781 -2.117188 5.367188 -2.117188 C 4.25 -2.117188 2.90625 -2.367188 1.617188 -2.925781 L 0.789062 -0.710938 C 2.367188 -0.0585938 3.90625 0.25 5.636719 0.25 Z M 5.636719 0.25 "/></g></g></g><g fill="#03fa6e" fill-opacity="1"><g transform="translate(228.65175, 271.549905)"><g/></g></g></svg>